# xmcd CD database file
#
# Track frame offsets:
#	150
#	12105
#	28059
#	42435
#	58935
#	78279
#	91229
#	105815
#	120177
#	135281
#	150605
#
# Disc length: 2206 seconds
#
# Revision: 0
# Processed by: cddbd v1.5.1PL0 Copyright (c) Steve Scherf et al.
# Submitted via: CDex 1.51
#
DISCID=73089c0b
DTITLE=Chantal Laurin - As Close As I Can Get
DYEAR=2005
DGENRE=Country
TTITLE0=As Close As I Can get
TTITLE1=I Wish You Were Mine
TTITLE2=I Should Have Been Loving You
TTITLE3=Every Thousand Years
TTITLE4=A Call Away
TTITLE5=Un-In Love
TTITLE6=He's Right Up Her Alley
TTITLE7=I'll Stop Caring Now
TTITLE8=I Still Love You
TTITLE9=Is This Love
TTITLE10=It Takes A Child
EXTD=YEAR: 2005
EXTT0=
EXTT1=
EXTT2=
EXTT3=
EXTT4=
EXTT5=
EXTT6=
EXTT7=
EXTT8=
EXTT9=
EXTT10=
PLAYORDER=
